<svg xmlns="http://www.w3.org/2000/svg" viewBox="0 0 100 100">
  <rect width="100" height="100" rx="22" fill="#2D4A35"/>
  <g fill="none" stroke="#F2EEE2" stroke-width="4.5" stroke-linecap="round" stroke-linejoin="round">
    <path d="M30 24h40"/>
    <path d="M30 76h40"/>
    <path d="M32 24c0 12 8 18 18 26 10-8 18-14 18-26"/>
    <path d="M32 76c0-12 8-18 18-26 10 8 18 14 18 26"/>
  </g>
  <path d="M42 32c1.5 6 4.5 9 8 12 3.5-3 6.5-6 8-12z" fill="#6B9B5E"/>
  <path d="M50 52c-4 4.5-7 7.5-8 15h16c-1-7.5-4-10.5-8-15z" fill="#88B379"/>
  <circle cx="50" cy="49.5" r="1.6" fill="#F2EEE2"/>
</svg>
